PathFileType	4	(X/Y/Z)	OpenSim_Sub03_CSStiffKnee_Magnet.trc
DataRate	CameraRate	NumFrames	NumMarkers	Units	OrigDataRate	OrigDataStartFrame	OrigNumFrames
100	100	37	8	m	100	1	3637
Frame#	Time	torso_imu_offset_imu	pelvis_imu_offset_imu	tibia_r_imu_offset_imu	femur_r_imu_offset_imu	tibia_l_imu_offset_imu	femur_l_imu_offset_imu	toes_r_imu_offset_imu	toes_l_imu_offset_imu
				X1	Y1	Z1	X2	Y2	Z2	X3	Y3	Z3	X4	Y4	Z4	X5	Y5	Z5	X6	Y6	Z6	X7	Y7	Z7	X8		Y8	Z8	

1	0	-0.89038100	-0.26391600	0.20971700	-0.72705100	0.29150400	-0.58105500	-0.58496100	-0.56982400	-0.19946300	-0.64794900	-0.64770500	-0.22534200	-0.66479500	0.46460000	0.23461900	-0.66406200	0.35131800	0.39306600	-0.68017600	-0.35351600	-0.46704100	-0.76684600	-0.11059600	-0.34130900
2	0.01000000	-0.89453100	-0.26831100	0.20776400	-0.72680700	0.28515600	-0.58325200	-0.58300800	-0.56982400	-0.20166000	-0.64575200	-0.64990200	-0.21142600	-0.66259800	0.46460000	0.23681600	-0.66186500	0.35131800	0.40649400	-0.68432600	-0.35376000	-0.46289100	-0.76928700	-0.10864300	-0.33667000
3	0.02000000	-0.89257800	-0.26391600	0.20971700	-0.72485400	0.28735400	-0.57617200	-0.58496100	-0.57202100	-0.19946300	-0.64794900	-0.64990200	-0.21826200	-0.66259800	0.46240200	0.23266600	-0.66430700	0.35766600	0.40405300	-0.68432600	-0.35571300	-0.46093800	-0.76489300	-0.10620100	-0.33667000
4	0.03000000	-0.89892600	-0.26611300	0.20971700	-0.72485400	0.29150400	-0.58105500	-0.58715800	-0.57177700	-0.20605500	-0.64794900	-0.64575200	-0.21850600	-0.66040000	0.46460000	0.23461900	-0.66381800	0.34912100	0.40210000	-0.67602500	-0.35351600	-0.46093800	-0.77124000	-0.11523400	-0.32788100
5	0.04000000	-0.89038100	-0.26391600	0.20532200	-0.72705100	0.28735400	-0.58544900	-0.58496100	-0.56982400	-0.20166000	-0.64575200	-0.64990200	-0.21826200	-0.66235400	0.46020500	0.23706100	-0.65747100	0.35131800	0.40185500	-0.68237300	-0.34960900	-0.46508800	-0.77368200	-0.10864300	-0.33911100
6	0.05000000	-0.89477500	-0.26611300	0.20971700	-0.72509800	0.29150400	-0.57397500	-0.58300800	-0.56982400	-0.19946300	-0.64404300	-0.64355500	-0.22070300	-0.65795900	0.46020500	0.23925800	-0.66845700	0.35327100	0.39965800	-0.68017600	-0.35571300	-0.46508800	-0.76928700	-0.10644500	-0.34130900
7	0.06000000	-0.89038100	-0.26391600	0.20752000	-0.72485400	0.28735400	-0.58081100	-0.57861300	-0.57177700	-0.20385700	-0.64575200	-0.65185500	-0.22290000	-0.66259800	0.46460000	0.23681600	-0.66162100	0.34692400	0.40649400	-0.68017600	-0.35156200	-0.46508800	-0.77172900	-0.10424800	-0.33911100
8	0.07000000	-0.89257800	-0.26611300	0.20312500	-0.72485400	0.29150400	-0.57641600	-0.58081100	-0.56982400	-0.19726600	-0.64819300	-0.64160200	-0.22314500	-0.66040000	0.46460000	0.23461900	-0.66186500	0.35131800	0.40429700	-0.68237300	-0.35351600	-0.46289100	-0.77124000	-0.11084000	-0.33447300
9	0.08000000	-0.89477500	-0.26196300	0.20752000	-0.72485400	0.28930700	-0.57861300	-0.58496100	-0.56982400	-0.19506800	-0.63964800	-0.64355500	-0.21630900	-0.66479500	0.46240200	0.23925800	-0.66845700	0.35107400	0.39965800	-0.68432600	-0.35571300	-0.45874000	-0.76464800	-0.11303700	-0.33227500
10	0.09000000	-0.89892600	-0.27026400	0.20336900	-0.72070300	0.28955100	-0.58105500	-0.58300800	-0.56982400	-0.19726600	-0.65014600	-0.64575200	-0.21606400	-0.66040000	0.46679700	0.23681600	-0.66626000	0.35107400	0.39965800	-0.67822300	-0.34741200	-0.46508800	-0.76709000	-0.10864300	-0.33911100
11	0.10000000	-0.89672900	-0.26831100	0.20776400	-0.72705100	0.28930700	-0.57641600	-0.58300800	-0.56762700	-0.20190400	-0.63964800	-0.64575200	-0.21606400	-0.66479500	0.46460000	0.23681600	-0.66821300	0.34887700	0.40429700	-0.68237300	-0.35156200	-0.46508800	-0.77148400	-0.10864300	-0.34350600
12	0.11000000	-0.89453100	-0.27026400	0.20776400	-0.72509800	0.29565400	-0.58129900	-0.58081100	-0.56982400	-0.20849600	-0.64599600	-0.64770500	-0.21826200	-0.66479500	0.46240200	0.23486300	-0.66626000	0.35107400	0.39746100	-0.68237300	-0.35351600	-0.45874000	-0.76928700	-0.10424800	-0.33227500
13	0.12000000	-0.88842800	-0.26171900	0.20971700	-0.72485400	0.29150400	-0.58325200	-0.58300800	-0.56762700	-0.19946300	-0.65210000	-0.65210000	-0.21606400	-0.66699200	0.46460000	0.23461900	-0.66186500	0.35131800	0.40185500	-0.68237300	-0.35351600	-0.45874000	-0.76928700	-0.10424800	-0.33227500
14	0.13000000	-0.89257800	-0.26831100	0.20776400	-0.72290000	0.29150400	-0.58325200	-0.57885700	-0.56982400	-0.19946300	-0.64794900	-0.64990200	-0.21362300	-0.66235400	0.46020500	0.23706100	-0.66162100	0.34912100	0.40429700	-0.67822300	-0.35351600	-0.46093800	-0.76709000	-0.10400400	-0.34350600
15	0.14000000	-0.89038100	-0.27026400	0.20117200	-0.72265600	0.28955100	-0.58105500	-0.58715800	-0.56762700	-0.20190400	-0.64355500	-0.65405300	-0.22045900	-0.66259800	0.46240200	0.23706100	-0.67041000	0.34887700	0.40210000	-0.68237300	-0.35156200	-0.45678700	-0.77148400	-0.10864300	-0.33227500
16	0.15000000	-0.89233400	-0.27246100	0.21020500	-0.72485400	0.28735400	-0.57861300	-0.57885700	-0.56762700	-0.19946300	-0.64599600	-0.64379900	-0.21630900	-0.66259800	0.46460000	0.23681600	-0.66845700	0.35107400	0.39746100	-0.68237300	-0.35156200	-0.46508800	-0.77368200	-0.10864300	-0.33447300
17	0.16000000	-0.89697300	-0.26391600	0.20532200	-0.72290000	0.29150400	-0.58105500	-0.58496100	-0.56982400	-0.20410200	-0.64160200	-0.64990200	-0.22045900	-0.66259800	0.46460000	0.23681600	-0.66821300	0.34887700	0.39965800	-0.68432600	-0.35376000	-0.46289100	-0.76904300	-0.11084000	-0.33667000
18	0.17000000	-0.89233400	-0.27246100	0.20800800	-0.71850600	0.29370100	-0.57641600	-0.58276400	-0.57617200	-0.20141600	-0.64575200	-0.64990200	-0.22070300	-0.66479500	0.46460000	0.23681600	-0.66626000	0.35327100	0.39746100	-0.68652300	-0.35571300	-0.46289100	-0.77368200	-0.10864300	-0.33447300
19	0.18000000	-0.89038100	-0.27026400	0.20556600	-0.72705100	0.28930700	-0.57861300	-0.58300800	-0.56982400	-0.20410200	-0.64404300	-0.64355500	-0.21850600	-0.66699200	0.46020500	0.23950200	-0.66845700	0.35107400	0.40429700	-0.68237300	-0.35156200	-0.46289100	-0.76928700	-0.10864300	-0.33911100
20	0.19000000	-0.89257800	-0.26831100	0.20556600	-0.72485400	0.28955100	-0.58325200	-0.58471700	-0.57617200	-0.20385700	-0.64379900	-0.64770500	-0.22070300	-0.66040000	0.46899400	0.23657200	-0.66601600	0.34692400	0.39306600	-0.68457000	-0.34960900	-0.46093800	-0.76928700	-0.10424800	-0.33691400
21	0.20000000	-0.89013700	-0.27246100	0.20141600	-0.72265600	0.28735400	-0.57617200	-0.58300800	-0.56982400	-0.20410200	-0.63964800	-0.64575200	-0.21386700	-0.66235400	0.45800800	0.24169900	-0.66601600	0.34912100	0.39526400	-0.67602500	-0.35351600	-0.46289100	-0.76684600	-0.11303700	-0.33911100
22	0.21000000	-0.89453100	-0.26831100	0.21435500	-0.72509800	0.29370100	-0.57641600	-0.58081100	-0.57177700	-0.20385700	-0.63964800	-0.64355500	-0.22070300	-0.65795900	0.46240200	0.24145500	-0.66162100	0.34912100	0.39965800	-0.68432600	-0.35376000	-0.46289100	-0.76904300	-0.11084000	-0.33447300
23	0.22000000	-0.89648400	-0.27246100	0.19677700	-0.72265600	0.28515600	-0.57617200	-0.58300800	-0.56567400	-0.20190400	-0.64794900	-0.64794900	-0.22290000	-0.66015600	0.45581100	0.23950200	-0.66601600	0.34887700	0.40210000	-0.68237300	-0.35351600	-0.46289100	-0.77148400	-0.10644500	-0.33447300
24	0.23000000	-0.89233400	-0.27246100	0.21020500	-0.72485400	0.28955100	-0.58325200	-0.58935500	-0.56762700	-0.20410200	-0.64379900	-0.64575200	-0.21850600	-0.66235400	0.45581100	0.24414100	-0.66626000	0.35107400	0.40429700	-0.68017600	-0.35156200	-0.46508800	-0.77368200	-0.10644500	-0.33227500
25	0.24000000	-0.89257800	-0.26611300	0.20312500	-0.72485400	0.28930700	-0.57641600	-0.58105500	-0.56762700	-0.19946300	-0.64379900	-0.64770500	-0.21606400	-0.66479500	0.46460000	0.24145500	-0.66626000	0.35107400	0.39526400	-0.68237300	-0.34960900	-0.46508800	-0.76464800	-0.10864300	-0.33667000
26	0.25000000	-0.89453100	-0.27246100	0.20556600	-0.72509800	0.29565400	-0.58129900	-0.58471700	-0.57617200	-0.20605500	-0.64599600	-0.64160200	-0.22314500	-0.66259800	0.46240200	0.23925800	-0.66821300	0.34668000	0.41113300	-0.68432600	-0.35376000	-0.46093800	-0.77148400	-0.10864300	-0.33911100
27	0.26000000	-0.89038100	-0.26391600	0.20752000	-0.72094700	0.29785200	-0.58129900	-0.57885700	-0.56567400	-0.20410200	-0.65234400	-0.64160200	-0.22314500	-0.66479500	0.46460000	0.23461900	-0.66601600	0.34887700	0.40210000	-0.68432600	-0.35376000	-0.46093800	-0.76245100	-0.11059600	-0.33667000
28	0.27000000	-0.89233400	-0.27026400	0.20996100	-0.72485400	0.29150400	-0.57641600	-0.58300800	-0.56567400	-0.20629900	-0.64599600	-0.64770500	-0.22290000	-0.66259800	0.46240200	0.24145500	-0.66381800	0.34692400	0.41088900	-0.68237300	-0.34741200	-0.46093800	-0.76928700	-0.10864300	-0.33447300
29	0.28000000	-0.89648400	-0.27465800	0.20800800	-0.72509800	0.29565400	-0.57641600	-0.58715800	-0.57202100	-0.20166000	-0.64819300	-0.63964800	-0.22094700	-0.66235400	0.45581100	0.24169900	-0.66626000	0.35327100	0.40429700	-0.68017600	-0.35156200	-0.46704100	-0.76464800	-0.11084000	-0.33007800
30	0.29000000	-0.89233400	-0.27026400	0.20336900	-0.72290000	0.29565400	-0.58129900	-0.58496100	-0.56982400	-0.20410200	-0.64624000	-0.63964800	-0.22094700	-0.66259800	0.46240200	0.23925800	-0.67041000	0.34448200	0.39746100	-0.68237300	-0.34960900	-0.46508800	-0.77172900	-0.10424800	-0.33227500
31	0.30000000	-0.89453100	-0.26831100	0.21435500	-0.72924800	0.28930700	-0.57397500	-0.58496100	-0.56982400	-0.20629900	-0.64990200	-0.64990200	-0.22509800	-0.66479500	0.46460000	0.23681600	-0.66601600	0.34887700	0.39965800	-0.68432600	-0.35156200	-0.46289100	-0.76904300	-0.11303700	-0.33911100
32	0.31000000	-0.89257800	-0.26391600	0.20752000	-0.72070300	0.29150400	-0.57861300	-0.58715800	-0.56762700	-0.20190400	-0.64379900	-0.64990200	-0.22045900	-0.66699200	0.46020500	0.23950200	-0.66381800	0.34692400	0.39965800	-0.68017600	-0.35156200	-0.45678700	-0.77148400	-0.10864300	-0.33911100
33	0.32000000	-0.89013700	-0.27441400	0.20581100	-0.72070300	0.28955100	-0.57617200	-0.58520500	-0.56762700	-0.19970700	-0.64599600	-0.64770500	-0.21826200	-0.66015600	0.45800800	0.23950200	-0.65722700	0.34692400	0.40210000	-0.68652300	-0.35156200	-0.46093800	-0.76489300	-0.10400400	-0.33911100
34	0.33000000	-0.90087900	-0.27026400	0.20556600	-0.72485400	0.29150400	-0.57861300	-0.58496100	-0.56982400	-0.20410200	-0.64599600	-0.64355500	-0.22534200	-0.66040000	0.46460000	0.23242200	-0.66796900	0.34252900	0.41113300	-0.68432600	-0.35376000	-0.46093800	-0.77124000	-0.11084000	-0.33447300
35	0.34000000	-0.89013700	-0.27441400	0.20800800	-0.72290000	0.29370100	-0.57177700	-0.58911100	-0.56982400	-0.20629900	-0.64599600	-0.64575200	-0.22534200	-0.66040000	0.46460000	0.23901400	-0.66626000	0.35107400	0.40429700	-0.68237300	-0.35156200	-0.46289100	-0.76684600	-0.11084000	-0.33447300
36	0.35000000	-0.89672900	-0.27026400	0.20776400	-0.72729500	0.29565400	-0.58129900	-0.58715800	-0.57177700	-0.20849600	-0.65014600	-0.64575200	-0.22534200	-0.66259800	0.46460000	0.23925800	-0.66601600	0.34692400	0.39965800	-0.68652300	-0.35571300	-0.45874000	-0.76684600	-0.11303700	-0.33447300
37	0.36000000	-0.89453100	-0.27246100	0.20556600	-0.72509800	0.29370100	-0.57421900	-0.58276400	-0.57397500	-0.20605500	-0.64990200	-0.64990200	-0.22290000	-0.66674800	0.45361300	0.23291000	-0.66381800	0.34692400	0.40210000	-0.68652300	-0.34960900	-0.46508800	-0.76709000	-0.10644500	-0.33447300
